<?xml version="1.0" encoding="utf-8"?>
<!-- Generator: Adobe Illustrator 25.2.1, SVG Export Plug-In . SVG Version: 6.00 Build 0)  -->
<svg version="1.1" id="Layer_1" xmlns="http://www.w3.org/2000/svg" xmlns:xlink="http://www.w3.org/1999/xlink" x="0px" y="0px"
	 viewBox="0 0 413.69 87.23" style="enable-background:new 0 0 413.69 87.23;" xml:space="preserve">
<style type="text/css">
	.st0{fill:#42B5E8;}
</style>
<g>
	<path class="st0" d="M0,87.23L35.14,0h11.3l35.02,87.23H66.83L57.5,63.52H23.83l-9.09,23.71H0z M40.79,15.36l-14.5,37.96h28.5
		L40.79,15.36z"/>
	<path class="st0" d="M92.02,87.23V0h13.76v75.07h46.81v12.16H92.02z"/>
	<path class="st0" d="M188.53,46.44L174.9,60.69v26.54h-13.76V0.12h13.76v45.46L216.42,0h14.74L188.53,46.44z M201.56,45.08
		l31.57,42.15h-14.87l-24.53-33.65L201.56,45.08z"/>
	<path class="st0" d="M241.68,87.23L276.82,0h11.3l35.02,87.23h-14.62l-9.34-23.71h-33.66l-9.09,23.71H241.68z M282.47,15.36
		l-14.5,37.96h28.5L282.47,15.36z"/>
	<path class="st0" d="M331.29,87.23V0h13.76v75.07h46.81v12.16H331.29z"/>
	<path class="st0" d="M399.93,87.23V0.12h13.76v87.11H399.93z"/>
</g>
</svg>
