<svg width="600" height="450" viewBox="0 0 600 450" fill="none" xmlns="http://www.w3.org/2000/svg">
<g opacity="0.3">
<path opacity="0.3" d="M102.277 165.278C102.277 165.278 40.6011 248.824 75.7796 288.703C110.958 328.583 119.536 288.703 119.536 288.703C119.536 288.703 154.056 273.379 102.277 165.278Z" fill="url(#paint0_linear)"/>
<path opacity="0.3" d="M63.6733 176.772C63.6733 176.772 20.4352 274.654 82.6164 292.082C144.798 309.511 69.2037 210.437 63.6733 176.772Z" fill="url(#paint1_linear)"/>
<path opacity="0.3" d="M100.553 287.942C100.553 287.942 81.6472 251.531 144.241 183.763C144.241 183.763 171.419 277.984 100.553 287.942Z" fill="url(#paint2_linear)"/>
<path opacity="0.3" d="M26.1938 206.174C26.1938 206.174 86.7389 224.777 109.122 273.674C131.504 322.571 70.8821 298.39 70.8821 298.39C70.8821 298.39 25.7129 272.493 26.1938 206.174Z" fill="url(#paint3_linear)"/>
<path opacity="0.3" d="M164.496 200.653C164.496 200.653 93.4897 238.43 96.2898 287.603C99.0899 336.776 174.489 260.748 164.496 200.653Z" fill="url(#paint4_linear)"/>
<path opacity="0.3" d="M190.664 351.549L150.176 396.354H40.4895L0 351.549L40.4878 275.717H150.174L190.664 351.549Z" fill="url(#paint5_linear)"/>
<path opacity="0.3" d="M190.664 351.548L150.176 396.354H40.4893C144.761 389.942 150.176 275.717 150.176 275.717L190.664 351.548Z" fill="url(#paint6_linear)"/>
<path opacity="0.3" d="M575.417 165.656H561.385V352.772H575.417V165.656Z" fill="url(#paint7_linear)"/>
<path opacity="0.3" d="M570.37 165.656H561.385V352.772H570.37V165.656Z" fill="url(#paint8_linear)"/>
<path opacity="0.3" d="M565.877 165.656H561.385V352.772H565.877V165.656Z" fill="url(#paint9_linear)"/>
<path opacity="0.3" d="M561.385 352.772H575.416V367.277C575.416 368.198 575.235 369.11 574.882 369.961C574.53 370.813 574.013 371.586 573.361 372.237C572.71 372.889 571.937 373.406 571.085 373.758C570.234 374.111 569.322 374.292 568.401 374.292V374.292C566.54 374.292 564.755 373.553 563.44 372.237C562.124 370.922 561.385 369.137 561.385 367.277V352.772Z" fill="url(#paint10_linear)"/>
<path opacity="0.3" d="M568.402 130.825L573.313 155.222L575.415 165.655H561.384L563.485 155.222L568.402 130.825Z" fill="url(#paint11_linear)"/>
<path opacity="0.3" d="M561.385 358.358H575.417V352.772H561.385V358.358Z" fill="url(#paint12_linear)"/>
<path opacity="0.3" d="M568.402 130.825L571.117 144.312L565.511 145.17L568.402 130.825Z" fill="url(#paint13_linear)"/>
<path opacity="0.3" d="M580.781 158.719L571.238 345.649L585.256 346.364L594.799 159.435L580.781 158.719Z" fill="url(#paint14_linear)"/>
<path opacity="0.3" d="M585.822 158.975L576.28 345.905L585.255 346.363L594.798 159.433L585.822 158.975Z" fill="url(#paint15_linear)"/>
<path opacity="0.3" d="M590.309 159.203L580.766 346.133L585.254 346.362L594.797 159.433L590.309 159.203Z" fill="url(#paint16_linear)"/>
<path opacity="0.3" d="M594.749 159.486L580.736 158.774L581.472 144.288C581.519 143.368 581.746 142.466 582.141 141.634C582.537 140.801 583.092 140.055 583.776 139.438C584.46 138.82 585.258 138.343 586.126 138.034C586.994 137.725 587.915 137.59 588.835 137.637V137.637C589.755 137.684 590.657 137.911 591.489 138.307C592.321 138.702 593.068 139.257 593.685 139.941C594.303 140.625 594.78 141.424 595.089 142.292C595.398 143.16 595.532 144.08 595.486 145L594.749 159.486Z" fill="url(#paint17_linear)"/>
<path opacity="0.3" d="M576.477 380.791L572.811 356.175L571.242 345.65L585.254 346.362L582.626 356.674L576.477 380.791Z" fill="url(#paint18_linear)"/>
<path opacity="0.3" d="M595.034 153.906L581.02 153.194L580.736 158.773L594.751 159.485L595.034 153.906Z" fill="url(#paint19_linear)"/>
<path opacity="0.3" d="M576.477 380.791L574.45 367.182L580.092 366.61L576.477 380.791Z" fill="url(#paint20_linear)"/>
<path opacity="0.3" d="M534.214 155.31L520.2 156.022L529.696 342.898L543.71 342.185L534.214 155.31Z" fill="url(#paint21_linear)"/>
<path opacity="0.3" d="M529.172 155.566L520.2 156.022L529.696 342.898L538.668 342.442L529.172 155.566Z" fill="url(#paint22_linear)"/>
<path opacity="0.3" d="M524.686 155.794L520.2 156.022L529.696 342.898L534.182 342.67L524.686 155.794Z" fill="url(#paint23_linear)"/>
<path opacity="0.3" d="M520.199 156.023L534.213 155.31L533.477 140.824C533.382 138.966 532.553 137.221 531.172 135.974C529.792 134.727 527.972 134.079 526.114 134.174V134.174C524.255 134.268 522.511 135.097 521.263 136.478C520.016 137.859 519.369 139.678 519.463 141.536L520.199 156.023Z" fill="url(#paint24_linear)"/>
<path opacity="0.3" d="M538.474 377.327L542.14 352.712L543.709 342.186L529.696 342.899L532.325 353.211L538.474 377.327Z" fill="url(#paint25_linear)"/>
<path opacity="0.3" d="M520.199 156.022L534.214 155.31L533.93 149.731L519.916 150.443L520.199 156.022Z" fill="url(#paint26_linear)"/>
<path opacity="0.3" d="M538.473 377.327L540.5 363.719L534.858 363.146L538.473 377.327Z" fill="url(#paint27_linear)"/>
<path opacity="0.3" d="M474.961 33L440.188 44.6631L548.689 368.151L583.462 356.488L474.961 33Z" fill="url(#paint28_linear)"/>
<path opacity="0.3" d="M449.153 41.6565L440.188 44.6635L548.689 368.151L557.654 365.145L449.153 41.6565Z" fill="url(#paint29_linear)"/>
<path opacity="0.3" d="M472.16 68.3546L455.047 74.095L455.85 76.4892L472.963 70.7488L472.16 68.3546Z" fill="url(#paint30_linear)"/>
<path opacity="0.3" d="M465.949 49.8385L448.836 55.5789L449.639 57.9731L466.752 52.2327L465.949 49.8385Z" fill="url(#paint31_linear)"/>
<path opacity="0.3" d="M478.37 86.8703L461.257 92.6107L462.06 95.005L479.173 89.2646L478.37 86.8703Z" fill="url(#paint32_linear)"/>
<path opacity="0.3" d="M484.58 105.386L467.468 111.127L468.271 113.521L485.384 107.781L484.58 105.386Z" fill="url(#paint33_linear)"/>
<path opacity="0.3" d="M490.791 123.902L473.678 129.642L474.481 132.037L491.594 126.296L490.791 123.902Z" fill="url(#paint34_linear)"/>
<path opacity="0.3" d="M497.003 142.418L479.888 148.159L480.692 150.553L497.806 144.813L497.003 142.418Z" fill="url(#paint35_linear)"/>
<path opacity="0.3" d="M503.212 160.934L486.099 166.674L486.902 169.069L504.015 163.328L503.212 160.934Z" fill="url(#paint36_linear)"/>
<path opacity="0.3" d="M509.424 179.45L492.309 185.19L493.112 187.585L510.227 181.845L509.424 179.45Z" fill="url(#paint37_linear)"/>
<path opacity="0.3" d="M515.633 197.966L498.52 203.707L499.323 206.101L516.436 200.36L515.633 197.966Z" fill="url(#paint38_linear)"/>
<path opacity="0.3" d="M521.843 216.482L504.73 222.222L505.533 224.617L522.646 218.876L521.843 216.482Z" fill="url(#paint39_linear)"/>
<path opacity="0.3" d="M528.054 234.998L510.941 240.738L511.744 243.133L528.857 237.392L528.054 234.998Z" fill="url(#paint40_linear)"/>
<path opacity="0.3" d="M534.266 253.514L517.151 259.254L517.954 261.649L535.069 255.908L534.266 253.514Z" fill="url(#paint41_linear)"/>
<path opacity="0.3" d="M540.474 272.03L523.362 277.77L524.165 280.164L541.278 274.424L540.474 272.03Z" fill="url(#paint42_linear)"/>
<path opacity="0.3" d="M546.685 290.546L529.572 296.286L530.375 298.68L547.488 292.94L546.685 290.546Z" fill="url(#paint43_linear)"/>
<path opacity="0.3" d="M552.895 309.062L535.782 314.802L536.586 317.197L553.698 311.456L552.895 309.062Z" fill="url(#paint44_linear)"/>
<path opacity="0.3" d="M559.106 327.577L541.993 333.318L542.796 335.712L559.909 329.972L559.106 327.577Z" fill="url(#paint45_linear)"/>
<path opacity="0.3" d="M565.316 346.094L548.203 351.834L549.007 354.228L566.119 348.488L565.316 346.094Z" fill="url(#paint46_linear)"/>
<path opacity="0.3" d="M505.429 391.15H584.321L600 198.818H489.75L505.429 391.15Z" fill="url(#paint47_linear)"/>
<path opacity="0.3" d="M489.75 198.818C489.75 198.818 508.964 324.637 584.321 391.15H505.429L489.75 198.818Z" fill="url(#paint48_linear)"/>
</g>
<path d="M343.323 404.747H276.443L283.558 395.872C288.96 389.139 291.903 380.766 291.902 372.134V309.976H327.85V372.134C327.854 380.765 330.797 389.137 336.194 395.872L343.323 404.747Z" fill="url(#paint49_linear)"/>
<path d="M343.321 404.751H276.44V410.29H343.321V404.751Z" fill="url(#paint50_linear)"/>
<path d="M327.851 316.949V365.356L291.903 352.071V316.949H327.851Z" fill="url(#paint51_linear)"/>
<path d="M501.905 77.7048L501.9 285.784H117.853L117.857 77.7048C117.858 77.0341 117.975 76.3685 118.202 75.7376C118.605 74.6382 119.337 73.6893 120.297 73.0192C121.257 72.3491 122.4 71.9903 123.571 71.9913H496.191C496.942 71.9912 497.685 72.1389 498.378 72.426C499.071 72.7131 499.701 73.134 500.232 73.6645C500.762 74.1951 501.183 74.825 501.47 75.5182C501.757 76.2115 501.905 76.9545 501.905 77.7048Z" fill="url(#paint52_linear)"/>
<path d="M117.856 285.784H501.906V324.247C501.906 326.881 500.859 329.406 498.997 331.269C497.135 333.131 494.61 334.177 491.976 334.177H127.785C125.152 334.177 122.626 333.131 120.764 331.269C118.902 329.406 117.856 326.881 117.856 324.247V285.784Z" fill="url(#paint53_linear)"/>
<path d="M492.948 80.7695H126.814V277.555H492.948V80.7695Z" fill="url(#paint54_linear)"/>
<path d="M319.465 312.243C320.715 306.95 317.437 301.646 312.143 300.397C306.85 299.147 301.546 302.425 300.297 307.718C299.047 313.011 302.325 318.315 307.618 319.565C312.911 320.815 318.215 317.537 319.465 312.243Z" fill="url(#paint55_linear)"/>
<path opacity="0.5" d="M232.183 196.038H154.636C152.371 196.038 150.535 197.874 150.535 200.139V250.287C150.535 252.552 152.371 254.388 154.636 254.388H232.183C234.448 254.388 236.283 252.552 236.283 250.287V200.139C236.283 197.874 234.448 196.038 232.183 196.038Z" fill="url(#paint56_linear)"/>
<path opacity="0.7" d="M465.117 103.937H154.636C152.371 103.937 150.535 105.773 150.535 108.038V174.855C150.535 177.12 152.371 178.956 154.636 178.956H465.117C467.382 178.956 469.218 177.12 469.218 174.855V108.038C469.218 105.773 467.382 103.937 465.117 103.937Z" fill="url(#paint57_linear)"/>
<g opacity="0.5">
<path opacity="0.5" d="M465.117 204.239H258.788C257.7 204.239 256.657 203.807 255.888 203.038C255.119 202.269 254.687 201.226 254.687 200.138V200.138C254.687 199.051 255.119 198.008 255.888 197.239C256.657 196.47 257.7 196.038 258.788 196.038H465.117C465.656 196.038 466.189 196.144 466.686 196.35C467.184 196.556 467.636 196.858 468.017 197.239C468.397 197.62 468.699 198.072 468.906 198.569C469.112 199.067 469.218 199.6 469.218 200.138C469.218 200.677 469.112 201.21 468.906 201.707C468.699 202.205 468.397 202.657 468.017 203.038C467.636 203.419 467.184 203.721 466.686 203.927C466.189 204.133 465.656 204.239 465.117 204.239V204.239Z" fill="url(#paint58_linear)"/>
<path opacity="0.5" d="M465.117 254.388H258.788C257.7 254.388 256.657 253.956 255.888 253.187C255.119 252.418 254.687 251.375 254.687 250.287C254.687 249.2 255.119 248.157 255.888 247.388C256.657 246.619 257.7 246.187 258.788 246.187H465.117C465.656 246.187 466.189 246.293 466.686 246.499C467.184 246.705 467.636 247.007 468.017 247.388C468.397 247.768 468.699 248.221 468.906 248.718C469.112 249.216 469.218 249.749 469.218 250.287V250.287C469.218 250.826 469.112 251.359 468.906 251.856C468.699 252.354 468.397 252.806 468.017 253.187C467.636 253.568 467.184 253.87 466.686 254.076C466.189 254.282 465.656 254.388 465.117 254.388V254.388Z" fill="url(#paint59_linear)"/>
<path opacity="0.5" d="M465.117 229.471H258.788C256.523 229.471 254.687 231.307 254.687 233.571C254.687 235.836 256.523 237.672 258.788 237.672H465.117C467.382 237.672 469.217 235.836 469.217 233.571C469.217 231.307 467.382 229.471 465.117 229.471Z" fill="url(#paint60_linear)"/>
<path opacity="0.5" d="M465.117 220.955H258.788C257.7 220.955 256.657 220.523 255.888 219.754C255.119 218.985 254.687 217.942 254.687 216.855V216.855C254.687 215.767 255.119 214.724 255.888 213.955C256.657 213.186 257.7 212.754 258.788 212.754H465.117C466.205 212.754 467.248 213.186 468.017 213.955C468.786 214.724 469.218 215.767 469.218 216.855V216.855C469.218 217.393 469.112 217.926 468.906 218.424C468.699 218.921 468.397 219.373 468.017 219.754C467.636 220.135 467.184 220.437 466.686 220.643C466.189 220.849 465.656 220.955 465.117 220.955V220.955Z" fill="url(#paint61_linear)"/>
</g>
<path opacity="0.3" d="M324.076 71.9913L130.066 273.462L118.202 285.784V75.7376C118.605 74.6382 119.337 73.6893 120.297 73.0192C121.257 72.3491 122.4 71.9903 123.571 71.9913H324.076Z" fill="white"/>
<path opacity="0.3" d="M433.911 72.2662L263.742 286.058L185.842 286.053L353.537 72.2662H433.911Z" fill="white"/>
<path d="M160.013 225.281H112.853V238.859H160.013V225.281Z" fill="url(#paint62_linear)"/>
<path d="M181.24 222.077H101.556C100.295 222.077 99.0453 222.326 97.8798 222.809C96.7142 223.292 95.6553 224 94.7633 224.893C93.8714 225.785 93.164 226.845 92.6815 228.01C92.199 229.176 91.9509 230.426 91.9513 231.688V407.975C91.9536 410.521 92.9663 412.963 94.7671 414.764C96.5679 416.565 99.0096 417.578 101.556 417.58H181.24C182.502 417.58 183.751 417.332 184.917 416.85C186.083 416.367 187.143 415.66 188.035 414.768C188.927 413.876 189.635 412.817 190.119 411.651C190.602 410.486 190.851 409.236 190.851 407.975V231.688C190.851 230.425 190.603 229.175 190.12 228.009C189.637 226.843 188.929 225.784 188.037 224.891C187.144 223.999 186.084 223.291 184.918 222.808C183.752 222.325 182.502 222.076 181.24 222.077V222.077ZM127.968 227.203C127.971 227.012 128.046 226.829 128.179 226.691C128.246 226.624 128.326 226.571 128.414 226.535C128.501 226.499 128.596 226.48 128.69 226.481H150.456C150.551 226.481 150.645 226.5 150.733 226.536C150.82 226.572 150.9 226.625 150.967 226.693C151.034 226.76 151.087 226.839 151.124 226.927C151.16 227.014 151.179 227.108 151.179 227.203C151.177 227.393 151.1 227.575 150.964 227.708C150.829 227.842 150.646 227.916 150.456 227.915H128.691C128.596 227.916 128.503 227.899 128.415 227.863C128.328 227.828 128.248 227.776 128.181 227.71C128.113 227.644 128.06 227.565 128.023 227.478C127.987 227.391 127.968 227.297 127.968 227.203H127.968ZM153.394 227.203C153.393 227.061 153.434 226.922 153.513 226.804C153.591 226.685 153.702 226.593 153.833 226.538C153.964 226.483 154.108 226.468 154.247 226.495C154.386 226.522 154.515 226.59 154.615 226.69C154.716 226.79 154.784 226.918 154.813 227.057C154.841 227.196 154.827 227.34 154.773 227.471C154.719 227.602 154.627 227.714 154.509 227.793C154.391 227.872 154.252 227.914 154.11 227.914C153.921 227.914 153.74 227.84 153.606 227.706C153.471 227.573 153.395 227.392 153.394 227.203V227.203Z" fill="url(#paint63_linear)"/>
<path d="M164.383 225.045C161.25 229.583 155.786 232.336 149.911 232.336H132.888C127.013 232.336 121.549 229.583 118.416 225.045H100.433C99.7767 225.045 99.1263 225.174 98.5195 225.426C97.9127 225.677 97.3613 226.045 96.8969 226.51C96.4324 226.974 96.0641 227.526 95.8127 228.133C95.5614 228.739 95.4321 229.39 95.4321 230.047V409.137C95.4321 409.793 95.5615 410.444 95.8128 411.05C96.0642 411.657 96.4326 412.208 96.897 412.673C97.3614 413.137 97.9127 413.506 98.5195 413.757C99.1263 414.009 99.7767 414.138 100.433 414.138H182.366C183.692 414.138 184.964 413.611 185.902 412.673C186.84 411.735 187.367 410.463 187.367 409.137V230.047C187.367 229.39 187.238 228.739 186.986 228.133C186.735 227.526 186.367 226.974 185.902 226.51C185.438 226.045 184.886 225.677 184.28 225.426C183.673 225.174 183.022 225.045 182.366 225.045H164.383Z" fill="url(#paint64_linear)"/>
<path d="M118.418 225.047C118.472 225.127 118.526 225.203 118.585 225.279C118.693 225.429 118.801 225.575 118.914 225.722C119.011 225.851 119.113 225.975 119.216 226.099C119.318 226.228 119.421 226.347 119.528 226.471C119.642 226.595 119.755 226.725 119.869 226.849C119.984 226.972 120.101 227.091 120.22 227.21C120.338 227.328 120.462 227.448 120.586 227.565C120.829 227.797 121.082 228.018 121.341 228.239C121.47 228.347 121.6 228.449 121.734 228.557L122.139 228.864C122.273 228.966 122.413 229.063 122.554 229.161C122.694 229.258 122.834 229.355 122.98 229.446C123.12 229.538 123.265 229.624 123.411 229.716C123.702 229.893 123.998 230.061 124.3 230.222C124.451 230.298 124.602 230.379 124.758 230.454C124.909 230.53 125.065 230.605 125.222 230.675C125.378 230.745 125.535 230.815 125.696 230.885C126.014 231.022 126.332 231.144 126.661 231.263C126.823 231.322 126.984 231.376 127.152 231.43C127.383 231.505 127.615 231.576 127.847 231.64C127.879 231.651 127.915 231.662 127.955 231.672C128.197 231.737 128.445 231.802 128.693 231.856C128.855 231.894 129.016 231.931 129.178 231.964C129.351 232.001 129.523 232.033 129.696 232.06C129.764 232.071 129.832 232.082 129.9 232.094C129.992 232.111 130.084 232.127 130.175 232.138C130.262 232.154 130.348 232.165 130.44 232.175C130.456 232.175 130.472 232.181 130.488 232.181L130.849 232.229C130.986 232.24 131.119 232.256 131.254 232.267C131.555 232.294 131.857 232.315 132.164 232.321C132.402 232.332 132.639 232.337 132.881 232.337H149.914C150.129 232.337 150.345 232.332 150.562 232.326C150.842 232.315 151.123 232.299 151.397 232.278C151.586 232.262 151.775 232.244 151.963 232.224C152.055 232.213 152.141 232.202 152.233 232.19C152.37 232.174 152.503 232.158 152.632 232.136C152.858 232.102 153.079 232.066 153.3 232.028C153.51 231.99 153.721 231.947 153.931 231.899C154.152 231.85 154.378 231.796 154.605 231.737C154.82 231.683 155.036 231.624 155.246 231.559C155.478 231.489 155.71 231.419 155.936 231.338C155.942 231.338 155.947 231.333 155.952 231.333C155.958 231.333 155.968 231.327 155.974 231.327C156.152 231.263 156.324 231.198 156.502 231.133C156.653 231.079 156.804 231.015 156.949 230.955C157.364 230.783 157.774 230.6 158.177 230.395C158.333 230.314 158.49 230.233 158.641 230.152C158.792 230.072 158.937 229.991 159.082 229.904C159.093 229.902 159.103 229.896 159.11 229.888C159.255 229.802 159.401 229.718 159.541 229.63C159.686 229.538 159.832 229.446 159.977 229.349H159.983C159.993 229.344 160.004 229.333 160.015 229.328V229.322C160.144 229.236 160.274 229.15 160.403 229.053C160.543 228.956 160.683 228.853 160.824 228.751C161.034 228.589 161.244 228.427 161.444 228.255C161.638 228.093 161.826 227.932 162.015 227.759C162.025 227.754 162.031 227.743 162.042 227.732C162.15 227.635 162.252 227.538 162.355 227.435C162.491 227.306 162.624 227.177 162.753 227.042C162.883 226.908 163.012 226.767 163.136 226.627C163.233 226.525 163.325 226.423 163.411 226.314C163.535 226.169 163.654 226.023 163.772 225.878C163.988 225.608 164.193 225.332 164.386 225.048L118.418 225.047ZM150.969 227.704C150.903 227.772 150.823 227.825 150.735 227.861C150.647 227.897 150.553 227.915 150.458 227.914H128.691C128.596 227.916 128.503 227.898 128.415 227.863C128.328 227.828 128.248 227.776 128.181 227.709C128.114 227.643 128.061 227.564 128.024 227.477C127.987 227.39 127.969 227.297 127.968 227.203C127.971 227.012 128.046 226.829 128.179 226.691C128.246 226.624 128.326 226.571 128.413 226.535C128.501 226.498 128.595 226.48 128.69 226.481H150.456C150.648 226.481 150.831 226.557 150.967 226.693C151.102 226.828 151.179 227.012 151.179 227.203C151.178 227.296 151.159 227.389 151.123 227.475C151.087 227.561 151.035 227.639 150.968 227.704H150.969ZM154.112 227.914C153.97 227.914 153.832 227.872 153.714 227.793C153.596 227.714 153.504 227.602 153.45 227.471C153.396 227.34 153.382 227.196 153.41 227.057C153.438 226.917 153.507 226.79 153.607 226.69C153.708 226.59 153.836 226.522 153.975 226.495C154.115 226.468 154.259 226.483 154.389 226.538C154.52 226.593 154.632 226.685 154.71 226.804C154.788 226.922 154.829 227.061 154.828 227.203C154.828 227.297 154.81 227.39 154.773 227.476C154.737 227.563 154.684 227.642 154.618 227.708C154.551 227.774 154.472 227.826 154.385 227.862C154.298 227.897 154.205 227.915 154.111 227.914H154.112Z" fill="url(#paint65_linear)"/>
<path opacity="0.7" d="M179.183 236.662H103.619C102.674 236.662 101.907 237.429 101.907 238.374V271.788C101.907 272.734 102.674 273.5 103.619 273.5H179.183C180.128 273.5 180.894 272.734 180.894 271.788V238.374C180.894 237.429 180.128 236.662 179.183 236.662Z" fill="url(#paint66_linear)"/>
<path opacity="0.5" d="M124.45 283.478H103.619C102.674 283.478 101.907 284.244 101.907 285.189V306.02C101.907 306.965 102.674 307.731 103.619 307.731H124.45C125.395 307.731 126.161 306.965 126.161 306.02V285.189C126.161 284.244 125.395 283.478 124.45 283.478Z" fill="url(#paint67_linear)"/>
<path opacity="0.5" d="M179.435 317.609H158.604C157.659 317.609 156.892 318.375 156.892 319.32V340.151C156.892 341.096 157.659 341.862 158.604 341.862H179.435C180.38 341.862 181.146 341.096 181.146 340.151V319.32C181.146 318.375 180.38 317.609 179.435 317.609Z" fill="url(#paint68_linear)"/>
<path opacity="0.5" d="M124.45 350.434H103.619C102.674 350.434 101.907 351.201 101.907 352.146V372.977C101.907 373.922 102.674 374.688 103.619 374.688H124.45C125.395 374.688 126.161 373.922 126.161 372.977V352.146C126.161 351.201 125.395 350.434 124.45 350.434Z" fill="url(#paint69_linear)"/>
<path opacity="0.5" d="M179.435 350.434H158.604C157.659 350.434 156.892 351.201 156.892 352.146V372.977C156.892 373.922 157.659 374.688 158.604 374.688H179.435C180.38 374.688 181.146 373.922 181.146 372.977V352.146C181.146 351.201 180.38 350.434 179.435 350.434Z" fill="url(#paint70_linear)"/>
<path opacity="0.5" d="M151.942 350.434H131.111C130.166 350.434 129.4 351.201 129.4 352.146V372.977C129.4 373.922 130.166 374.688 131.111 374.688H151.942C152.888 374.688 153.654 373.922 153.654 372.977V352.146C153.654 351.201 152.888 350.434 151.942 350.434Z" fill="url(#paint71_linear)"/>
<g opacity="0.5">
<path opacity="0.5" d="M179.183 286.8H134.602C134.148 286.8 133.713 286.62 133.392 286.299C133.071 285.978 132.891 285.543 132.891 285.089V285.089C132.891 284.635 133.071 284.199 133.392 283.878C133.713 283.558 134.148 283.377 134.602 283.377H179.183C179.407 283.377 179.63 283.421 179.838 283.507C180.045 283.593 180.234 283.72 180.393 283.878C180.552 284.037 180.678 284.226 180.764 284.434C180.85 284.641 180.894 284.864 180.894 285.089V285.089C180.894 285.313 180.85 285.536 180.764 285.744C180.678 285.951 180.552 286.14 180.393 286.299C180.234 286.458 180.045 286.584 179.838 286.67C179.63 286.756 179.407 286.8 179.183 286.8V286.8Z" fill="url(#paint72_linear)"/>
<path opacity="0.5" d="M179.182 307.731H134.602C134.148 307.731 133.713 307.551 133.392 307.23C133.071 306.909 132.89 306.474 132.89 306.02V306.02C132.89 305.566 133.071 305.131 133.392 304.81C133.713 304.489 134.148 304.308 134.602 304.308H179.182C179.407 304.308 179.63 304.353 179.837 304.439C180.045 304.525 180.234 304.651 180.393 304.81C180.552 304.969 180.678 305.157 180.764 305.365C180.85 305.573 180.894 305.795 180.894 306.02V306.02C180.894 306.245 180.85 306.467 180.764 306.675C180.678 306.883 180.552 307.071 180.393 307.23C180.234 307.389 180.045 307.515 179.837 307.601C179.63 307.687 179.407 307.731 179.182 307.731Z" fill="url(#paint73_linear)"/>
<path opacity="0.5" d="M179.182 300.754H134.602C134.148 300.754 133.713 300.574 133.392 300.253C133.071 299.932 132.89 299.497 132.89 299.043V299.043C132.89 298.589 133.071 298.154 133.392 297.833C133.713 297.512 134.148 297.331 134.602 297.331H179.182C179.407 297.331 179.63 297.376 179.837 297.462C180.045 297.548 180.234 297.674 180.393 297.833C180.552 297.991 180.678 298.18 180.764 298.388C180.85 298.595 180.894 298.818 180.894 299.043V299.043C180.894 299.268 180.85 299.49 180.764 299.698C180.678 299.905 180.552 300.094 180.393 300.253C180.234 300.412 180.045 300.538 179.837 300.624C179.63 300.71 179.407 300.754 179.182 300.754Z" fill="url(#paint74_linear)"/>
<path opacity="0.5" d="M179.182 290.354H134.602C133.657 290.354 132.89 291.12 132.89 292.066C132.89 293.011 133.657 293.777 134.602 293.777H179.182C180.128 293.777 180.894 293.011 180.894 292.066C180.894 291.12 180.128 290.354 179.182 290.354Z" fill="url(#paint75_linear)"/>
</g>
<g opacity="0.5">
<path opacity="0.5" d="M148.452 321.032H103.871C103.417 321.032 102.982 320.852 102.661 320.531C102.34 320.21 102.16 319.774 102.16 319.32V319.32C102.16 319.096 102.204 318.873 102.29 318.665C102.376 318.458 102.502 318.269 102.661 318.11C102.82 317.951 103.008 317.825 103.216 317.739C103.424 317.653 103.646 317.609 103.871 317.609H148.452C148.906 317.609 149.341 317.789 149.662 318.11C149.983 318.431 150.163 318.866 150.163 319.32C150.163 319.774 149.983 320.21 149.662 320.531C149.341 320.852 148.906 321.032 148.452 321.032V321.032Z" fill="url(#paint76_linear)"/>
<path opacity="0.5" d="M148.452 341.963H103.871C103.646 341.963 103.424 341.919 103.216 341.833C103.008 341.747 102.82 341.62 102.661 341.461C102.502 341.303 102.376 341.114 102.29 340.906C102.204 340.699 102.159 340.476 102.159 340.251V340.251C102.159 340.026 102.204 339.804 102.29 339.596C102.376 339.389 102.502 339.2 102.661 339.041C102.82 338.882 103.008 338.756 103.216 338.67C103.424 338.584 103.646 338.54 103.871 338.54H148.452C148.905 338.54 149.341 338.72 149.662 339.041C149.983 339.362 150.163 339.797 150.163 340.251C150.163 340.705 149.983 341.14 149.662 341.461C149.341 341.783 148.905 341.963 148.452 341.963V341.963Z" fill="url(#paint77_linear)"/>
<path opacity="0.5" d="M148.452 334.986H103.871C103.646 334.986 103.424 334.942 103.216 334.856C103.008 334.77 102.82 334.643 102.661 334.484C102.502 334.325 102.376 334.137 102.29 333.929C102.204 333.721 102.159 333.499 102.159 333.274V333.274C102.159 332.82 102.34 332.385 102.661 332.064C102.982 331.743 103.417 331.563 103.871 331.563H148.452C148.905 331.563 149.341 331.743 149.662 332.064C149.983 332.385 150.163 332.82 150.163 333.274C150.163 333.728 149.983 334.163 149.662 334.484C149.341 334.805 148.905 334.986 148.452 334.986V334.986Z" fill="url(#paint78_linear)"/>
<path opacity="0.5" d="M148.452 328.009H103.871C103.646 328.009 103.424 327.965 103.216 327.879C103.008 327.793 102.82 327.666 102.661 327.508C102.502 327.349 102.376 327.16 102.29 326.952C102.204 326.745 102.159 326.522 102.159 326.297V326.297C102.159 325.843 102.34 325.408 102.661 325.087C102.982 324.766 103.417 324.586 103.871 324.586H148.452C148.905 324.586 149.341 324.766 149.662 325.087C149.983 325.408 150.163 325.843 150.163 326.297V326.297C150.163 326.751 149.983 327.187 149.662 327.508C149.341 327.828 148.905 328.009 148.452 328.009V328.009Z" fill="url(#paint79_linear)"/>
</g>
<path opacity="0.3" d="M170.95 222.077L169.797 225.047L165.294 236.663L151.01 273.498L147.183 283.378L145.853 286.801L144.479 290.353L143.153 293.776L141.773 297.328L140.447 300.751L139.067 304.308L137.741 307.731L133.914 317.606L132.588 321.028L131.208 324.586L129.878 328.009L128.503 331.561L127.177 334.984L125.797 338.536L124.472 341.959L121.189 350.433L111.783 374.688L110.214 378.736L101.908 400.155L97.0132 412.779L95.8761 415.712C94.6586 414.822 93.6685 413.657 92.9866 412.311C92.3047 410.966 91.9503 409.479 91.9522 407.97V231.688C91.9518 230.426 92.1999 229.176 92.6824 228.01C93.1649 226.845 93.8722 225.785 94.7642 224.893C95.6561 224 96.7151 223.292 97.8806 222.809C99.0462 222.326 100.295 222.077 101.557 222.077H170.95Z" fill="white"/>
<path opacity="0.3" d="M190.851 245.988V306.406L187.369 313.252L181.149 325.482L172.815 341.863L168.46 350.434L156.892 373.175L153.652 379.546L141.729 402.989L136.059 414.135L134.307 417.58H112.999L114.562 414.135L119.618 402.989L126.162 388.564L129.402 381.427L130.62 378.738L132.458 374.69L143.465 350.434L147.308 341.96L148.861 338.538L156.892 320.836L158.359 317.607L162.838 307.732L164.391 304.309L166.002 300.752L167.555 297.329L169.166 293.777L170.724 290.354L172.336 286.802L173.888 283.379L178.367 273.498L180.895 267.931L187.369 253.663L190.851 245.988Z" fill="white"/>
<defs>
<linearGradient id="paint0_linear" x1="94.3151" y1="174.17" x2="110.471" y2="256.834" gradientUnits="userSpaceOnUse">
<stop stop-color="white"/>
<stop offset="1" stop-color="#00BAFF"/>
</linearGradient>
<linearGradient id="paint1_linear" x1="92.8176" y1="198.364" x2="55.919" y2="232.731" gradientUnits="userSpaceOnUse">
<stop stop-color="white"/>
<stop offset="1" stop-color="#00BAFF"/>
</linearGradient>
<linearGradient id="paint2_linear" x1="105.441" y1="195.64" x2="150.35" y2="221.633" gradientUnits="userSpaceOnUse">
<stop stop-color="#2269F9"/>
<stop offset="1" stop-color="#165BCB"/>
</linearGradient>
<linearGradient id="paint3_linear" x1="40.78" y1="224.144" x2="89.193" y2="274.403" gradientUnits="userSpaceOnUse">
<stop stop-color="white"/>
<stop offset="1" stop-color="#00BAFF"/>
</linearGradient>
<linearGradient id="paint4_linear" x1="159.664" y1="219.351" x2="90.538" y2="258.786" gradientUnits="userSpaceOnUse">
<stop stop-color="#2269F9"/>
<stop offset="1" stop-color="#165BCB"/>
</linearGradient>
<linearGradient id="paint5_linear" x1="102.196" y1="203.697" x2="98.0721" y2="426.628" gradientUnits="userSpaceOnUse">
<stop stop-color="white"/>
<stop offset="1" stop-color="#00BAFF"/>
</linearGradient>
<linearGradient id="paint6_linear" x1="121.283" y1="154.718" x2="117.6" y2="372.985" gradientUnits="userSpaceOnUse">
<stop stop-color="white"/>
<stop offset="1" stop-color="#2166F0"/>
</linearGradient>
<linearGradient id="paint7_linear" x1="3353.16" y1="-3363.36" x2="3321.64" y2="-3369.66" gradientUnits="userSpaceOnUse">
<stop stop-color="white"/>
<stop offset="1" stop-color="#00BAFF"/>
</linearGradient>
<linearGradient id="paint8_linear" x1="3353.15" y1="-3337.91" x2="3382.08" y2="-3344.36" gradientUnits="userSpaceOnUse">
<stop stop-color="white"/>
<stop offset="1" stop-color="#00BAFF"/>
</linearGradient>
<linearGradient id="paint9_linear" x1="3355.26" y1="-3341.1" x2="3359.5" y2="-3341.29" gradientUnits="userSpaceOnUse">
<stop stop-color="white"/>
<stop offset="1" stop-color="#00BAFF"/>
</linearGradient>
<linearGradient id="paint10_linear" x1="3350.55" y1="-3537.36" x2="3355.74" y2="-3501.68" gradientUnits="userSpaceOnUse">
<stop stop-color="#2269F9"/>
<stop offset="1" stop-color="#165BCB"/>
</linearGradient>
<linearGradient id="paint11_linear" x1="2938.97" y1="134.342" x2="2962.73" y2="169.25" gradientUnits="userSpaceOnUse">
<stop stop-color="#2269F9"/>
<stop offset="1" stop-color="#165BCB"/>
</linearGradient>
<linearGradient id="paint12_linear" x1="-1798.58" y1="355.565" x2="-1812.61" y2="355.565" gradientUnits="userSpaceOnUse">
<stop stop-color="#2269F9"/>
<stop offset="1" stop-color="#165BCB"/>
</linearGradient>
<linearGradient id="paint13_linear" x1="2942.12" y1="112.247" x2="2943.94" y2="132.825" gradientUnits="userSpaceOnUse">
<stop stop-color="#2269F9"/>
<stop offset="1" stop-color="#165BCB"/>
</linearGradient>
<linearGradient id="paint14_linear" x1="-358.92" y1="2655.11" x2="-502.354" y2="2647.81" gradientUnits="userSpaceOnUse">
<stop stop-color="white"/>
<stop offset="1" stop-color="#00BAFF"/>
</linearGradient>
<linearGradient id="paint15_linear" x1="-331.156" y1="2658.97" x2="-461.2" y2="2652.32" gradientUnits="userSpaceOnUse">
<stop stop-color="white"/>
<stop offset="1" stop-color="#00BAFF"/>
</linearGradient>
<linearGradient id="paint16_linear" x1="-332.199" y1="2659.1" x2="-404.657" y2="2655.4" gradientUnits="userSpaceOnUse">
<stop stop-color="white"/>
<stop offset="1" stop-color="#00BAFF"/>
</linearGradient>
<linearGradient id="paint17_linear" x1="-1866.26" y1="-739.34" x2="-1861.42" y2="-703.585" gradientUnits="userSpaceOnUse">
<stop stop-color="#2269F9"/>
<stop offset="1" stop-color="#165BCB"/>
</linearGradient>
<linearGradient id="paint18_linear" x1="-460.187" y1="1775.15" x2="-444.573" y2="1779.25" gradientUnits="userSpaceOnUse">
<stop stop-color="#2269F9"/>
<stop offset="1" stop-color="#165BCB"/>
</linearGradient>
<linearGradient id="paint19_linear" x1="2912.76" y1="274.479" x2="2927.04" y2="275.204" gradientUnits="userSpaceOnUse">
<stop stop-color="white"/>
<stop offset="1" stop-color="#00BAFF"/>
</linearGradient>
<linearGradient id="paint20_linear" x1="2930.74" y1="373.7" x2="2936.38" y2="373.7" gradientUnits="userSpaceOnUse">
<stop stop-color="#2269F9"/>
<stop offset="1" stop-color="#165BCB"/>
</linearGradient>
<linearGradient id="paint21_linear" x1="3399.44" y1="-986.656" x2="3367.79" y2="-991.301" gradientUnits="userSpaceOnUse">
<stop stop-color="white"/>
<stop offset="1" stop-color="#00BAFF"/>
</linearGradient>
<linearGradient id="paint22_linear" x1="3400.7" y1="-961.428" x2="3429.19" y2="-969.302" gradientUnits="userSpaceOnUse">
<stop stop-color="white"/>
<stop offset="1" stop-color="#00BAFF"/>
</linearGradient>
<linearGradient id="paint23_linear" x1="3402.65" y1="-964.711" x2="3406.91" y2="-965.127" gradientUnits="userSpaceOnUse">
<stop stop-color="white"/>
<stop offset="1" stop-color="#00BAFF"/>
</linearGradient>
<linearGradient id="paint24_linear" x1="3455.81" y1="-1013.51" x2="3460.65" y2="-977.756" gradientUnits="userSpaceOnUse">
<stop stop-color="#2269F9"/>
<stop offset="1" stop-color="white"/>
</linearGradient>
<linearGradient id="paint25_linear" x1="3109.33" y1="-2181.85" x2="3124.94" y2="-2177.75" gradientUnits="userSpaceOnUse">
<stop stop-color="#2269F9"/>
<stop offset="1" stop-color="#165BCB"/>
</linearGradient>
<linearGradient id="paint26_linear" x1="-1919.3" y1="277.189" x2="-1933.58" y2="277.915" gradientUnits="userSpaceOnUse">
<stop stop-color="#2269F9"/>
<stop offset="1" stop-color="#165BCB"/>
</linearGradient>
<linearGradient id="paint27_linear" x1="2970.3" y1="370.237" x2="2975.94" y2="370.237" gradientUnits="userSpaceOnUse">
<stop stop-color="#2269F9"/>
<stop offset="1" stop-color="#165BCB"/>
</linearGradient>
<linearGradient id="paint28_linear" x1="124.261" y1="-1834.11" x2="113.518" y2="-1830.47" gradientUnits="userSpaceOnUse">
<stop stop-color="white"/>
<stop offset="1" stop-color="#00BAFF"/>
</linearGradient>
<linearGradient id="paint29_linear" x1="93.1922" y1="-1744.52" x2="81.7105" y2="-1741.26" gradientUnits="userSpaceOnUse">
<stop stop-color="#2269F9"/>
<stop offset="1" stop-color="#165BCB"/>
</linearGradient>
<linearGradient id="paint30_linear" x1="2903.99" y1="-746.055" x2="2920.98" y2="-751.755" gradientUnits="userSpaceOnUse">
<stop stop-color="#2269F9"/>
<stop offset="1" stop-color="#165BCB"/>
</linearGradient>
<linearGradient id="paint31_linear" x1="2909.54" y1="-768.515" x2="2926.53" y2="-774.215" gradientUnits="userSpaceOnUse">
<stop stop-color="#2269F9"/>
<stop offset="1" stop-color="#165BCB"/>
</linearGradient>
<linearGradient id="paint32_linear" x1="2898.41" y1="-723.584" x2="2915.4" y2="-729.284" gradientUnits="userSpaceOnUse">
<stop stop-color="#2269F9"/>
<stop offset="1" stop-color="#165BCB"/>
</linearGradient>
<linearGradient id="paint33_linear" x1="2892.85" y1="-701.118" x2="2909.84" y2="-706.819" gradientUnits="userSpaceOnUse">
<stop stop-color="#2269F9"/>
<stop offset="1" stop-color="#165BCB"/>
</linearGradient>
<linearGradient id="paint34_linear" x1="2887.29" y1="-678.654" x2="2904.28" y2="-684.354" gradientUnits="userSpaceOnUse">
<stop stop-color="#2269F9"/>
<stop offset="1" stop-color="#165BCB"/>
</linearGradient>
<linearGradient id="paint35_linear" x1="2881.95" y1="-656.187" x2="2898.95" y2="-661.887" gradientUnits="userSpaceOnUse">
<stop stop-color="#2269F9"/>
<stop offset="1" stop-color="#165BCB"/>
</linearGradient>
<linearGradient id="paint36_linear" x1="2876.16" y1="-633.723" x2="2893.15" y2="-639.423" gradientUnits="userSpaceOnUse">
<stop stop-color="#2269F9"/>
<stop offset="1" stop-color="#165BCB"/>
</linearGradient>
<linearGradient id="paint37_linear" x1="2870.84" y1="-611.262" x2="2887.82" y2="-616.957" gradientUnits="userSpaceOnUse">
<stop stop-color="#2269F9"/>
<stop offset="1" stop-color="#165BCB"/>
</linearGradient>
<linearGradient id="paint38_linear" x1="2865.03" y1="-588.792" x2="2882.01" y2="-594.486" gradientUnits="userSpaceOnUse">
<stop stop-color="#2269F9"/>
<stop offset="1" stop-color="#165BCB"/>
</linearGradient>
<linearGradient id="paint39_linear" x1="2859.47" y1="-566.327" x2="2876.45" y2="-572.021" gradientUnits="userSpaceOnUse">
<stop stop-color="#2269F9"/>
<stop offset="1" stop-color="#165BCB"/>
</linearGradient>
<linearGradient id="paint40_linear" x1="2853.91" y1="-543.861" x2="2870.88" y2="-549.556" gradientUnits="userSpaceOnUse">
<stop stop-color="#2269F9"/>
<stop offset="1" stop-color="#165BCB"/>
</linearGradient>
<linearGradient id="paint41_linear" x1="2848.57" y1="-521.395" x2="2865.54" y2="-527.09" gradientUnits="userSpaceOnUse">
<stop stop-color="#2269F9"/>
<stop offset="1" stop-color="#165BCB"/>
</linearGradient>
<linearGradient id="paint42_linear" x1="2842.78" y1="-498.931" x2="2859.76" y2="-504.625" gradientUnits="userSpaceOnUse">
<stop stop-color="#2269F9"/>
<stop offset="1" stop-color="#165BCB"/>
</linearGradient>
<linearGradient id="paint43_linear" x1="2837.2" y1="-476.459" x2="2854.19" y2="-482.16" gradientUnits="userSpaceOnUse">
<stop stop-color="#2269F9"/>
<stop offset="1" stop-color="#165BCB"/>
</linearGradient>
<linearGradient id="paint44_linear" x1="2831.64" y1="-453.994" x2="2848.63" y2="-459.694" gradientUnits="userSpaceOnUse">
<stop stop-color="#2269F9"/>
<stop offset="1" stop-color="#165BCB"/>
</linearGradient>
<linearGradient id="paint45_linear" x1="2826.07" y1="-431.529" x2="2843.07" y2="-437.229" gradientUnits="userSpaceOnUse">
<stop stop-color="#2269F9"/>
<stop offset="1" stop-color="#165BCB"/>
</linearGradient>
<linearGradient id="paint46_linear" x1="2820.51" y1="-409.063" x2="2837.5" y2="-414.764" gradientUnits="userSpaceOnUse">
<stop stop-color="#2269F9"/>
<stop offset="1" stop-color="#165BCB"/>
</linearGradient>
<linearGradient id="paint47_linear" x1="2974.02" y1="139.195" x2="2936.15" y2="260.766" gradientUnits="userSpaceOnUse">
<stop stop-color="white"/>
<stop offset="1" stop-color="#00BAFF"/>
</linearGradient>
<linearGradient id="paint48_linear" x1="2973.76" y1="64.5699" x2="2973.76" y2="159.005" gradientUnits="userSpaceOnUse">
<stop stop-color="white"/>
<stop offset="1" stop-color="#00BAFF"/>
</linearGradient>
<linearGradient id="paint49_linear" x1="276.443" y1="357.362" x2="343.323" y2="357.362" gradientUnits="userSpaceOnUse">
<stop stop-color="white"/>
<stop offset="1" stop-color="#BDBDBD"/>
</linearGradient>
<linearGradient id="paint50_linear" x1="268.348" y1="370.518" x2="268.693" y2="415.347" gradientUnits="userSpaceOnUse">
<stop stop-color="white"/>
<stop offset="1" stop-color="#BDBDBD"/>
</linearGradient>
<linearGradient id="paint51_linear" x1="309.086" y1="295.408" x2="310.324" y2="329.563" gradientUnits="userSpaceOnUse">
<stop stop-color="white"/>
<stop offset="1" stop-color="#BDBDBD"/>
</linearGradient>
<linearGradient id="paint52_linear" x1="309.879" y1="-18.229" x2="309.879" y2="19.1847" gradientUnits="userSpaceOnUse">
<stop stop-color="#2168F7"/>
<stop offset="1" stop-color="#163A6B"/>
</linearGradient>
<linearGradient id="paint53_linear" x1="216.557" y1="206.033" x2="218.077" y2="309.555" gradientUnits="userSpaceOnUse">
<stop stop-color="white"/>
<stop offset="1" stop-color="#BDBDBD"/>
</linearGradient>
<linearGradient id="paint54_linear" x1="309.881" y1="53.0228" x2="309.881" y2="86.8699" gradientUnits="userSpaceOnUse">
<stop stop-color="white"/>
<stop offset="1" stop-color="#00BAFF"/>
</linearGradient>
<linearGradient id="paint55_linear" x1="313.166" y1="188.487" x2="311.259" y2="258.541" gradientUnits="userSpaceOnUse">
<stop stop-color="#2168F7"/>
<stop offset="1" stop-color="#163A6B"/>
</linearGradient>
<linearGradient id="paint56_linear" x1="192.209" y1="210.217" x2="208.594" y2="651.228" gradientUnits="userSpaceOnUse">
<stop stop-color="white"/>
<stop offset="1" stop-color="#2166F0"/>
</linearGradient>
<linearGradient id="paint57_linear" x1="314.657" y1="199.886" x2="316.618" y2="641.819" gradientUnits="userSpaceOnUse">
<stop stop-color="white"/>
<stop offset="1" stop-color="#2166F0"/>
</linearGradient>
<linearGradient id="paint58_linear" x1="392.416" y1="304.052" x2="392.437" y2="354.239" gradientUnits="userSpaceOnUse">
<stop stop-color="white"/>
<stop offset="1" stop-color="#2166F0"/>
</linearGradient>
<linearGradient id="paint59_linear" x1="379.329" y1="309.354" x2="379.351" y2="359.544" gradientUnits="userSpaceOnUse">
<stop stop-color="white"/>
<stop offset="1" stop-color="#2166F0"/>
</linearGradient>
<linearGradient id="paint60_linear" x1="383.62" y1="307.584" x2="383.642" y2="357.772" gradientUnits="userSpaceOnUse">
<stop stop-color="white"/>
<stop offset="1" stop-color="#2166F0"/>
</linearGradient>
<linearGradient id="paint61_linear" x1="388.125" y1="305.818" x2="388.146" y2="356.005" gradientUnits="userSpaceOnUse">
<stop stop-color="white"/>
<stop offset="1" stop-color="#2166F0"/>
</linearGradient>
<linearGradient id="paint62_linear" x1="135.867" y1="222.104" x2="135.816" y2="210.289" gradientUnits="userSpaceOnUse">
<stop stop-color="white"/>
<stop offset="1" stop-color="#00BAFF"/>
</linearGradient>
<linearGradient id="paint63_linear" x1="217.752" y1="364.012" x2="55.522" y2="339.987" gradientUnits="userSpaceOnUse">
<stop stop-color="#2168F7"/>
<stop offset="0.01" stop-color="#2066F2"/>
<stop offset="0.096" stop-color="#1D5ACE"/>
<stop offset="0.189" stop-color="#1B50AF"/>
<stop offset="0.291" stop-color="#194896"/>
<stop offset="0.404" stop-color="#174182"/>
<stop offset="0.534" stop-color="#163D75"/>
<stop offset="0.697" stop-color="#163A6D"/>
<stop offset="1" stop-color="#163A6B"/>
</linearGradient>
<linearGradient id="paint64_linear" x1="142.135" y1="206.892" x2="139.803" y2="289.286" gradientUnits="userSpaceOnUse">
<stop stop-color="white"/>
<stop offset="1" stop-color="#00BAFF"/>
</linearGradient>
<linearGradient id="paint65_linear" x1="181.302" y1="265.129" x2="179.528" y2="194.585" gradientUnits="userSpaceOnUse">
<stop stop-color="#2168F7"/>
<stop offset="0.034" stop-color="#1F60E1"/>
<stop offset="0.092" stop-color="#1C56C1"/>
<stop offset="0.158" stop-color="#1A4DA6"/>
<stop offset="0.233" stop-color="#184690"/>
<stop offset="0.32" stop-color="#17407F"/>
<stop offset="0.428" stop-color="#163C73"/>
<stop offset="0.58" stop-color="#163A6C"/>
<stop offset="1" stop-color="#163A6B"/>
</linearGradient>
<linearGradient id="paint66_linear" x1="138.162" y1="214.67" x2="145.867" y2="657.017" gradientUnits="userSpaceOnUse">
<stop stop-color="white"/>
<stop offset="1" stop-color="#2166F0"/>
</linearGradient>
<linearGradient id="paint67_linear" x1="133.923" y1="408.555" x2="153.738" y2="520.995" gradientUnits="userSpaceOnUse">
<stop stop-color="white"/>
<stop offset="1" stop-color="#2166F0"/>
</linearGradient>
<linearGradient id="paint68_linear" x1="181.583" y1="401.018" x2="201.374" y2="513.434" gradientUnits="userSpaceOnUse">
<stop stop-color="white"/>
<stop offset="1" stop-color="#2166F0"/>
</linearGradient>
<linearGradient id="paint69_linear" x1="122.717" y1="411.821" x2="142.508" y2="524.262" gradientUnits="userSpaceOnUse">
<stop stop-color="white"/>
<stop offset="1" stop-color="#2166F0"/>
</linearGradient>
<linearGradient id="paint70_linear" x1="176.077" y1="402.604" x2="195.868" y2="515.045" gradientUnits="userSpaceOnUse">
<stop stop-color="white"/>
<stop offset="1" stop-color="#2166F0"/>
</linearGradient>
<linearGradient id="paint71_linear" x1="149.385" y1="407.213" x2="169.201" y2="519.653" gradientUnits="userSpaceOnUse">
<stop stop-color="white"/>
<stop offset="1" stop-color="#2166F0"/>
</linearGradient>
<linearGradient id="paint72_linear" x1="157.948" y1="292.072" x2="158.251" y2="687.607" gradientUnits="userSpaceOnUse">
<stop stop-color="white"/>
<stop offset="1" stop-color="#2166F0"/>
</linearGradient>
<linearGradient id="paint73_linear" x1="155.02" y1="293.454" x2="155.323" y2="688.987" gradientUnits="userSpaceOnUse">
<stop stop-color="white"/>
<stop offset="1" stop-color="#2166F0"/>
</linearGradient>
<linearGradient id="paint74_linear" x1="155.98" y1="292.994" x2="156.283" y2="688.527" gradientUnits="userSpaceOnUse">
<stop stop-color="white"/>
<stop offset="1" stop-color="#2166F0"/>
</linearGradient>
<linearGradient id="paint75_linear" x1="156.94" y1="292.531" x2="157.243" y2="688.065" gradientUnits="userSpaceOnUse">
<stop stop-color="white"/>
<stop offset="1" stop-color="#2166F0"/>
</linearGradient>
<linearGradient id="paint76_linear" x1="123.041" y1="298.652" x2="123.344" y2="694.188" gradientUnits="userSpaceOnUse">
<stop stop-color="white"/>
<stop offset="1" stop-color="#2166F0"/>
</linearGradient>
<linearGradient id="paint77_linear" x1="120.113" y1="300.031" x2="120.416" y2="695.602" gradientUnits="userSpaceOnUse">
<stop stop-color="white"/>
<stop offset="1" stop-color="#2166F0"/>
</linearGradient>
<linearGradient id="paint78_linear" x1="121.073" y1="299.572" x2="121.376" y2="695.143" gradientUnits="userSpaceOnUse">
<stop stop-color="white"/>
<stop offset="1" stop-color="#2166F0"/>
</linearGradient>
<linearGradient id="paint79_linear" x1="122.081" y1="299.115" x2="122.384" y2="694.648" gradientUnits="userSpaceOnUse">
<stop stop-color="white"/>
<stop offset="1" stop-color="#2166F0"/>
</linearGradient>
</defs>
</svg>
