<svg width="525" height="453" viewBox="0 0 525 453" fill="none" xmlns="http://www.w3.org/2000/svg">
<path d="M384.474 403.128C377.686 403.129 370.965 401.793 364.694 399.196C358.423 396.599 352.725 392.792 347.925 387.993C343.125 383.194 339.318 377.496 336.72 371.225C334.122 364.954 332.785 358.233 332.785 351.445C332.788 349.045 332.956 346.647 333.289 344.27L384.471 351.445L421.288 315.19H421.294C428.442 322.449 433.286 331.658 435.216 341.661C437.145 351.664 436.076 362.014 432.141 371.411C428.206 380.808 421.582 388.832 413.1 394.475C404.619 400.118 394.659 403.129 384.471 403.128H384.474Z" fill="#F8F8F8" stroke="#1A1A1A" stroke-width="2" stroke-linecap="round" stroke-linejoin="round"/>
<path d="M421.3 315.187H421.292H421.3Z" fill="white" stroke="#1A1A1A" stroke-width="2" stroke-linecap="round" stroke-linejoin="round"/>
<path d="M333.284 344.27H333.293V344.265L333.284 344.27Z" fill="white" stroke="#1A1A1A" stroke-width="2" stroke-linecap="round" stroke-linejoin="round"/>
<path d="M384.475 351.445L333.292 344.269C334.296 337.098 336.796 330.218 340.629 324.075C344.461 317.932 349.542 312.663 355.541 308.609L371.172 331.753L384.475 351.445Z" fill="#BDBDBD" stroke="#1A1A1A" stroke-width="2" stroke-linecap="round" stroke-linejoin="round"/>
<path d="M384.474 351.444L371.172 331.753L355.541 308.609C365.544 301.856 377.596 298.817 389.605 300.019C401.614 301.221 412.824 306.588 421.291 315.189L384.474 351.444Z" fill="#00BAFF" stroke="black" stroke-width="2" stroke-linecap="round" stroke-linejoin="round"/>
<path d="M52.8734 310.288C45.4805 310.286 38.174 308.698 31.4468 305.632C24.7197 302.566 18.7283 298.093 13.8768 292.514C9.02534 286.936 5.42662 280.382 3.32341 273.294C1.2202 266.207 0.661504 258.751 1.68483 251.429L52.8734 258.605L23.9456 215.776C30.6425 211.253 38.3068 208.362 46.3231 207.338C54.3394 206.313 62.4842 207.183 70.1035 209.877C77.7228 212.571 84.6042 217.014 90.195 222.85C95.7859 228.685 99.9303 235.75 102.296 243.478C104.661 251.206 105.181 259.38 103.814 267.345C102.447 275.31 99.2317 282.844 94.4256 289.341C89.6194 295.838 83.3567 301.117 76.1403 304.755C68.9239 308.393 60.9549 310.288 52.8734 310.288V310.288Z" fill="#F8F8F8" stroke="#1A1A1A" stroke-width="2" stroke-linecap="round" stroke-linejoin="round"/>
<path d="M52.874 258.603L1.68544 251.427C2.68886 244.256 5.18925 237.376 9.02434 231.234C12.8594 225.091 17.9434 219.824 23.9462 215.774L52.874 258.603Z" fill="#BDBDBD" stroke="#1A1A1A" stroke-width="2" stroke-linecap="round" stroke-linejoin="round"/>
<path d="M472.062 133.153C458.355 133.154 445.21 127.71 435.517 118.019C425.824 108.328 420.377 95.1828 420.376 81.4761C420.373 79.0753 420.539 76.6773 420.874 74.2998L472.062 81.4761L521.487 96.6395C518.237 107.211 511.683 116.462 502.787 123.034C493.891 129.606 483.122 133.153 472.062 133.153Z" fill="#F8F8F8" stroke="#1A1A1A" stroke-width="2" stroke-linecap="round" stroke-linejoin="round"/>
<path d="M521.49 96.6392L472.065 81.4758L484.483 69.249L508.888 45.2141H508.894C515.428 51.8581 520.048 60.1429 522.265 69.1942C524.482 78.2454 524.214 87.7274 521.49 96.6392V96.6392Z" fill="#00BAFF" stroke="#1A1A1A" stroke-width="2" stroke-linecap="round" stroke-linejoin="round"/>
<path d="M472.061 81.4757L458.759 61.7783L443.134 38.6401C453.137 31.8874 465.188 28.848 477.197 30.0488C489.206 31.2496 500.417 36.615 508.885 45.2146L484.479 69.2495L472.061 81.4757Z" fill="#00BAFF" stroke="#1A1A1A" stroke-width="2" stroke-linecap="round" stroke-linejoin="round"/>
<path d="M472.062 81.4757L420.873 74.2994C421.877 67.1271 424.377 60.246 428.212 54.1027C432.047 47.9593 437.131 42.6912 443.134 38.6401L458.759 61.7784L472.062 81.4757Z" fill="#BDBDBD" stroke="#1A1A1A" stroke-width="2" stroke-linecap="round" stroke-linejoin="round"/>
<path d="M204.767 152.067C203.353 149.959 201.432 148.241 199.18 147.07C196.928 145.899 194.418 145.313 191.88 145.366L186.695 137.637C186.695 137.637 183.943 132.174 192.912 124.2L209.097 113.343C214.49 109.725 218.225 104.113 219.48 97.7409C220.736 91.3691 219.409 84.7597 215.791 79.3663L203.209 60.6063C196.532 54.6371 192.091 56.8866 192.091 56.8866L184.251 62.1468C184.318 65.4203 183.323 68.6276 181.414 71.2881C179.506 73.9486 176.787 75.9191 173.664 76.9046C170.542 77.8901 167.184 77.8375 164.094 76.7546C161.005 75.6717 158.349 73.6169 156.525 70.8979C154.7 68.1789 153.806 64.942 153.976 61.6722C154.146 58.4024 155.37 55.2757 157.466 52.7603C159.562 50.2449 162.417 48.4762 165.602 47.7193C168.788 46.9623 172.133 47.2578 175.136 48.5614L182.978 43.3018C186.477 40.9543 185.301 35.5371 184.055 32.0549L171.165 12.8416C169.373 10.1716 167.073 7.88055 164.396 6.09944C161.719 4.31834 158.717 3.08201 155.562 2.46099C152.407 1.83996 149.161 1.84648 146.009 2.48008C142.856 3.11368 139.86 4.36193 137.19 6.15369L121.004 17.0107C112.036 24.9845 114.787 30.4476 114.787 30.4476L119.972 38.1771C123.245 38.1104 126.452 39.1059 129.112 41.0144C131.771 42.9229 133.741 45.6417 134.726 48.7636C135.711 51.8855 135.658 55.2425 134.575 58.3318C133.492 61.421 131.437 64.0764 128.719 65.9C126 67.7235 122.764 68.6172 119.495 68.4472C116.226 68.2772 113.099 67.0528 110.584 64.9571C108.07 62.8614 106.301 60.0073 105.545 56.8224C104.788 53.6375 105.083 50.2931 106.387 47.2902L101.201 39.5607C97.6561 34.2773 86.849 39.9222 86.849 39.9222L70.6638 50.7792C67.9937 52.5699 65.7025 54.8691 63.9211 57.5454C62.1397 60.2217 60.903 63.2226 60.2816 66.3769C59.6601 69.5312 59.666 72.7771 60.2991 75.9291C60.9323 79.0811 62.1802 82.0776 63.9715 84.7473L74.9786 101.154C74.9786 101.154 80.6241 111.96 75.3402 115.505L67.6101 120.69C64.6071 119.387 61.2629 119.092 58.0782 119.849C54.8934 120.607 52.0398 122.375 49.9444 124.89C47.8491 127.405 46.6249 130.531 46.4553 133.8C46.2857 137.069 47.1796 140.305 49.0034 143.024C50.8272 145.742 53.4825 147.796 56.5717 148.879C59.661 149.962 63.0178 150.014 66.1395 149.029C69.2612 148.044 71.9798 146.074 73.888 143.414C75.7962 140.754 76.7913 137.548 76.7243 134.275L84.4544 129.09C84.4544 129.09 89.9175 126.339 97.8913 135.307L108.603 151.269C110.394 153.939 112.694 156.231 115.37 158.013C118.047 159.794 121.048 161.031 124.203 161.653C127.357 162.275 130.604 162.27 133.756 161.637C136.909 161.004 139.906 159.757 142.576 157.965L158.762 147.108C158.762 147.108 169.569 141.464 173.114 146.747L178.3 154.476C177.254 156.888 176.853 159.53 177.138 162.143C177.422 164.757 178.382 167.251 179.923 169.38C181.463 171.51 183.531 173.203 185.924 174.291C188.317 175.379 190.952 175.826 193.569 175.588C196.187 175.349 198.698 174.433 200.854 172.931C203.011 171.428 204.739 169.39 205.87 167.016C207 164.643 207.493 162.017 207.301 159.395C207.108 156.773 206.237 154.247 204.772 152.064L204.767 152.067Z" fill="#BDBDBD" stroke="#1A1A1A" stroke-width="3" stroke-linecap="round" stroke-linejoin="round"/>
<path d="M276.311 259.258C274.898 257.149 272.976 255.431 270.724 254.26C268.472 253.089 265.962 252.503 263.424 252.556L258.239 244.827C258.239 244.827 255.488 239.364 264.456 231.39L280.641 220.533C286.034 216.915 289.769 211.303 291.024 204.931C292.28 198.56 290.953 191.95 287.335 186.557L274.753 167.797C268.077 161.828 263.636 164.077 263.636 164.077L255.795 169.337C255.862 172.611 254.867 175.818 252.959 178.479C251.05 181.139 248.331 183.11 245.209 184.096C242.086 185.081 238.728 185.029 235.638 183.946C232.548 182.863 229.892 180.808 228.068 178.089C226.243 175.369 225.349 172.133 225.519 168.863C225.689 165.593 226.914 162.466 229.01 159.95C231.106 157.435 233.961 155.666 237.147 154.909C240.333 154.152 243.678 154.448 246.681 155.752L254.522 150.492C258.022 148.145 256.846 142.728 255.599 139.246L242.71 120.032C240.918 117.362 238.618 115.071 235.941 113.29C233.264 111.509 230.262 110.272 227.107 109.651C223.953 109.03 220.706 109.037 217.554 109.67C214.401 110.304 211.405 111.552 208.735 113.344L192.549 124.201C183.581 132.175 186.332 137.638 186.332 137.638L191.518 145.367C194.791 145.3 197.998 146.296 200.657 148.204C203.317 150.113 205.287 152.831 206.272 155.953C207.257 159.076 207.205 162.433 206.122 165.522C205.039 168.611 202.984 171.267 200.265 173.091C197.547 174.914 194.31 175.808 191.041 175.638C187.772 175.468 184.645 174.244 182.13 172.148C179.615 170.053 177.847 167.198 177.09 164.013C176.333 160.828 176.628 157.484 177.932 154.481L172.746 146.751C169.201 141.468 158.394 147.113 158.394 147.113L142.209 157.97C139.539 159.76 137.248 162.06 135.466 164.736C133.685 167.412 132.448 170.413 131.827 173.568C131.205 176.722 131.211 179.968 131.844 183.12C132.478 186.272 133.725 189.268 135.517 191.938L146.524 208.345C146.524 208.345 152.17 219.151 146.886 222.696L139.155 227.881C136.152 226.578 132.808 226.283 129.623 227.04C126.439 227.797 123.585 229.566 121.49 232.081C119.394 234.595 118.17 237.722 118.001 240.991C117.831 244.26 118.725 247.496 120.549 250.214C122.372 252.932 125.028 254.987 128.117 256.069C131.206 257.152 134.563 257.205 137.685 256.22C140.807 255.235 143.525 253.265 145.433 250.605C147.341 247.945 148.337 244.739 148.27 241.466L155.999 236.28C155.999 236.28 161.462 233.529 169.437 242.497L180.145 258.459C181.936 261.13 184.236 263.421 186.912 265.203C189.589 266.985 192.59 268.222 195.745 268.844C198.9 269.466 202.146 269.46 205.299 268.828C208.451 268.195 211.448 266.947 214.119 265.156L230.305 254.299C230.305 254.299 241.112 248.654 244.656 253.937L249.842 261.667C248.796 264.078 248.396 266.721 248.681 269.333C248.965 271.946 249.925 274.44 251.466 276.57C253.006 278.7 255.074 280.392 257.467 281.48C259.86 282.568 262.494 283.015 265.112 282.776C267.729 282.538 270.24 281.622 272.396 280.119C274.553 278.617 276.281 276.579 277.411 274.206C278.542 271.833 279.035 269.207 278.842 266.585C278.65 263.964 277.779 261.438 276.315 259.255L276.311 259.258Z" fill="#00BAFF" stroke="#1A1A1A" stroke-width="3" stroke-linecap="round" stroke-linejoin="round"/>
<path d="M384.341 186.851C382.927 184.743 381.006 183.024 378.754 181.853C376.502 180.682 373.991 180.096 371.454 180.149L366.268 172.42C366.268 172.42 363.516 166.957 372.485 158.984L388.671 148.127C394.064 144.508 397.798 138.896 399.054 132.524C400.309 126.153 398.982 119.543 395.364 114.15L382.782 95.39C376.106 89.4209 371.665 91.6704 371.665 91.6704L363.824 96.93C363.891 100.204 362.896 103.411 360.988 106.072C359.079 108.733 356.36 110.703 353.238 111.689C350.115 112.675 346.757 112.622 343.667 111.539C340.577 110.456 337.921 108.402 336.097 105.682C334.272 102.963 333.378 99.7264 333.548 96.4565C333.718 93.1865 334.942 90.0595 337.039 87.544C339.135 85.0285 341.989 83.2597 345.175 82.5027C348.361 81.7458 351.706 82.0414 354.71 83.3451L362.551 78.0855C366.051 75.7374 364.875 70.3208 363.628 66.8386L350.738 47.6253C348.947 44.9552 346.647 42.6642 343.969 40.883C341.292 39.1019 338.291 37.8655 335.136 37.2445C331.981 36.6234 328.734 36.6299 325.582 37.2635C322.43 37.8972 319.433 39.1456 316.763 40.9374L300.578 51.7944C291.609 59.7682 294.36 65.2308 294.36 65.2308L299.546 72.9603C302.819 72.8935 306.026 73.8888 308.686 75.7973C311.346 77.7058 313.316 80.4246 314.301 83.5466C315.286 86.6686 315.233 90.0258 314.15 93.1152C313.067 96.2047 311.012 98.8601 308.294 100.684C305.575 102.508 302.339 103.401 299.069 103.232C295.8 103.062 292.674 101.837 290.159 99.7414C287.644 97.6457 285.875 94.7916 285.118 91.6066C284.362 88.4215 284.657 85.077 285.96 82.0739L280.774 74.3443C277.23 69.0609 266.423 74.706 266.423 74.706L250.237 85.563C247.567 87.3537 245.276 89.6528 243.494 92.3291C241.713 95.0054 240.476 98.0065 239.855 101.161C239.234 104.315 239.24 107.561 239.873 110.713C240.506 113.865 241.754 116.861 243.545 119.531L254.552 135.938C254.552 135.938 260.198 146.744 254.914 150.288L247.184 155.474C244.181 154.17 240.836 153.875 237.651 154.632C234.466 155.389 231.612 157.157 229.516 159.672C227.421 162.187 226.196 165.314 226.026 168.583C225.856 171.852 226.75 175.089 228.574 177.807C230.398 180.526 233.053 182.581 236.143 183.663C239.232 184.746 242.589 184.799 245.711 183.814C248.833 182.829 251.552 180.859 253.461 178.199C255.369 175.539 256.364 172.332 256.297 169.059L264.028 163.874C264.028 163.874 269.491 161.122 277.465 170.09L288.174 186.052C289.964 188.723 292.264 191.015 294.94 192.796C297.617 194.578 300.619 195.815 303.773 196.437C306.928 197.059 310.174 197.054 313.327 196.421C316.48 195.788 319.477 194.54 322.147 192.749L338.332 181.892C338.332 181.892 349.14 176.247 352.685 181.531L357.87 189.26C356.824 191.672 356.424 194.314 356.708 196.927C356.993 199.54 357.953 202.034 359.493 204.164C361.034 206.294 363.102 207.986 365.495 209.074C367.887 210.162 370.522 210.609 373.14 210.371C375.757 210.132 378.268 209.217 380.425 207.714C382.581 206.211 384.31 204.173 385.44 201.8C386.57 199.427 387.063 196.8 386.871 194.179C386.679 191.557 385.808 189.031 384.343 186.848L384.341 186.851Z" fill="#F8F8F8" stroke="#1A1A1A" stroke-width="3" stroke-linecap="round" stroke-linejoin="round"/>
<path d="M127.558 154.471L56.5548 207.062" stroke="#1A1A1A" stroke-width="2" stroke-linecap="round" stroke-linejoin="round"/>
<path d="M428.269 108.421L384.472 135.367" stroke="#1A1A1A" stroke-width="2" stroke-linecap="round" stroke-linejoin="round"/>
<path d="M352.955 310.289L278.295 204.397" stroke="#1A1A1A" stroke-width="2" stroke-linecap="round" stroke-linejoin="round"/>
<path d="M246.882 332.833C224.945 339.259 201.427 337.57 180.634 328.076" stroke="#1A1A1A" stroke-width="2" stroke-linecap="round" stroke-linejoin="round"/>
<path d="M239.851 345.948C230.283 349.8 219.652 350.096 209.885 346.78" stroke="#1A1A1A" stroke-width="2" stroke-linecap="round" stroke-linejoin="round"/>
<path d="M217.606 389.529C217.606 394.523 221.654 398.571 226.648 398.571C231.641 398.571 235.689 394.523 235.689 389.529C235.689 384.536 231.641 380.488 226.648 380.488C221.654 380.488 217.606 384.536 217.606 389.529Z" fill="#BDBDBD" stroke="#1A1A1A" stroke-width="2" stroke-linecap="round" stroke-linejoin="round"/>
<path d="M176.313 433.008C176.313 436.794 179.383 439.864 183.169 439.864C186.956 439.864 190.025 436.794 190.025 433.008C190.025 429.221 186.956 426.151 183.169 426.151C179.383 426.151 176.313 429.221 176.313 433.008Z" fill="#BDBDBD" stroke="#1A1A1A" stroke-width="2" stroke-linecap="round" stroke-linejoin="round"/>
<path d="M219.792 445.144C219.792 448.93 222.861 452 226.648 452C230.434 452 233.504 448.93 233.504 445.144C233.504 441.357 230.434 438.288 226.648 438.288C222.861 438.288 219.792 441.357 219.792 445.144Z" fill="#F8F8F8" stroke="#1A1A1A" stroke-width="2" stroke-linecap="round" stroke-linejoin="round"/>
<path d="M187.216 403.001C187.216 409.611 192.575 414.97 199.185 414.97C205.796 414.97 211.154 409.611 211.154 403.001C211.154 396.39 205.796 391.032 199.185 391.032C192.575 391.032 187.216 396.39 187.216 403.001Z" fill="#F8F8F8" stroke="#1A1A1A" stroke-width="2" stroke-linecap="round" stroke-linejoin="round"/>
<path d="M162.031 380.488C162.031 383.669 164.609 386.247 167.79 386.247C170.97 386.247 173.549 383.669 173.549 380.488C173.549 377.308 170.97 374.729 167.79 374.729C164.609 374.729 162.031 377.308 162.031 380.488Z" fill="#F8F8F8" stroke="#1A1A1A" stroke-width="2" stroke-linecap="round" stroke-linejoin="round"/>
<path d="M189.335 396.203L172.781 383.359" stroke="#1A1A1A" stroke-width="2" stroke-linecap="round" stroke-linejoin="round"/>
<path d="M192.721 413.071L186.438 426.979" stroke="#1A1A1A" stroke-width="2" stroke-linecap="round" stroke-linejoin="round"/>
<path d="M223.104 439.274L204.648 413.649" stroke="#1A1A1A" stroke-width="2" stroke-linecap="round" stroke-linejoin="round"/>
<path d="M217.954 392.012L209.921 396.202" stroke="#1A1A1A" stroke-width="2" stroke-linecap="round" stroke-linejoin="round"/>
</svg>
