<svg width="228" height="228" viewBox="0 0 228 228" fill="none" xmlns="http://www.w3.org/2000/svg">
<g clip-path="url(#clip0)">
<path d="M0 114C0 51.0383 51.0449 -0.000976562 114.002 -0.000976562C176.96 -0.000976562 228.001 51.0377 228.001 114C228.001 176.961 176.965 228 114.002 228C51.0401 228 0 176.956 0 114Z" fill="#399536"/>
<path d="M152.013 69.6715H145.679V86.1373H152.013C159.404 86.1373 166.493 89.0733 171.719 94.2993C176.945 99.5254 179.881 106.613 179.881 114.004C179.881 121.395 176.945 128.483 171.719 133.709C166.493 138.935 159.404 141.871 152.013 141.871H136.796V55.7407C136.795 51.373 135.06 47.1844 131.971 44.0961C128.883 41.0077 124.694 39.2725 120.326 39.272V158.331H152.013C163.771 158.331 175.046 153.661 183.36 145.347C191.673 137.034 196.344 125.758 196.344 114.001C196.344 102.244 191.673 90.9689 183.36 82.6554C175.046 74.342 163.771 69.6715 152.013 69.6715V69.6715ZM31.6543 113.996C31.6544 119.818 32.8013 125.583 35.0295 130.962C37.2576 136.34 40.5235 141.227 44.6406 145.344C48.7576 149.46 53.6452 152.725 59.0242 154.952C64.4032 157.18 70.1682 158.326 75.9902 158.325H82.3228V141.865H75.9902C68.5988 141.865 61.5101 138.929 56.2836 133.702C51.0571 128.476 48.1209 121.387 48.1209 113.996C48.1209 106.605 51.0571 99.5161 56.2836 94.2896C61.5101 89.0632 68.5988 86.1271 75.9902 86.1271H91.2097V172.262C91.2094 174.425 91.6352 176.566 92.4627 178.564C93.2902 180.562 94.5033 182.377 96.0326 183.906C97.5619 185.435 99.3774 186.647 101.376 187.474C103.374 188.301 105.515 188.727 107.678 188.726V69.6649H75.9902C70.1681 69.6645 64.4029 70.8109 59.0239 73.0386C53.6449 75.2663 48.7574 78.5316 44.6404 82.6482C40.5234 86.7648 37.2576 91.652 35.0294 97.0308C32.8012 102.41 31.6544 108.174 31.6543 113.996V113.996Z" fill="white"/>
</g>
<defs>
<clipPath id="clip0">
<rect width="228" height="228" fill="white"/>
</clipPath>
</defs>
</svg>
